#!OML:ASF X:\für Bonn\!DataBase\2005_08_11_Bastian_Final\c3d\Bastian.ASF
:FULLY-SPECIFIED
:DEGREES
215
root -0.23381 16.8335 -3.21874 534.855 40.4305 -176.27
lowerback 30.2859 -7.40301 4.88713
upperback 18.0229 -3.92296 5.12253
thorax 3.87272 -0.187544 3.85699
lowerneck -16.5835 -12.023 -20.0382
upperneck -8.97487 -11.9322 32.671
head 4.13272 -4.41484 13.1156
rclavicle 7.87187e-014 -6.99722e-014
rhumerus -24.2709 7.22452 -80.6835
rradius 48.1055
rwrist 7.98977
rhand -18.1401 5.22021
rfingers 7.12502
rthumb 8.1351 -24.6032
lclavicle 7.87187e-014 -6.99722e-014
lhumerus -6.43794 -33.0946 94.6696
lradius 58.6284
lwrist 3.40338
lhand -16.0628 -10.1671
lfingers 7.12502
lthumb 10.1396 19.5685
rfemur -27.555 -0.863671 22.0313
rtibia 42.0445
rfoot -11.4521 -0.8873
rtoes -27.047
lfemur 11.6232 -1.58487 -11.4921
ltibia 50.9787
lfoot -4.27877 -5.11198
ltoes -36.6049
216
root -0.137402 16.8551 -3.27435 534.95 40.2843 -176.307
lowerback 30.1911 -7.45002 5.0059
upperback 17.9852 -3.96564 5.16225
thorax 3.86599 -0.203918 3.84344
lowerneck -16.498 -11.9835 -19.9508
upperneck -9.0119 -11.8946 32.546
head 4.07518 -4.41114 13.0564
rclavicle 9.85972e-014 -6.75868e-014
rhumerus -24.2035 7.27152 -80.7533
rradius 48.7095
rwrist 8.16799
rhand -18.267 5.31972
rfingers 7.12502
rthumb 8.01264 -24.5084
lclavicle 9.85972e-014 -6.75868e-014
lhumerus -6.50325 -32.654 94.4931
lradius 57.9017
lwrist 3.30088
lhand -16.147 -10.1637
lfingers 7.12502
lthumb 10.0584 19.5759
rfemur -27.3209 -1.21602 22.1319
rtibia 42.0816
rfoot -11.4723 -0.737512
rtoes -27.0208
lfemur 10.8072 -1.66451 -11.3208
ltibia 52.2818
lfoot -2.56115 -4.99834
ltoes -36.3257
217
root -0.0416664 16.8764 -3.32928 535.022 40.1454 -176.344
lowerback 30.1175 -7.48923 5.11065
upperback 17.9422 -4.00028 5.19952
thorax 3.84543 -0.217618 3.8333
lowerneck -16.3992 -11.9322 -19.8718
upperneck -9.03173 -11.8455 32.4187
head 4.01775 -4.4026 13.0009
rclavicle 2.3059e-014 -5.24792e-014
rhumerus -24.1705 7.28667 -80.8452
rradius 49.3141
rwrist 8.44034
rhand -18.4372 5.44354
rfingers 7.12502
rthumb 7.84841 -24.3908
lclavicle 2.3059e-014 -5.24792e-014
lhumerus -6.59571 -32.1686 94.3323
lradius 57.1588
lwrist 3.19222
lhand -16.2646 -10.2161
lfingers 7.12502
lthumb 9.94489 19.529
rfemur -27.0582 -1.56526 22.2305
rtibia 42.1045
rfoot -11.5007 -0.563142
rtoes -26.9543
lfemur 9.97074 -1.73635 -11.1572
ltibia 53.6265
lfoot -0.895716 -4.89595
ltoes -35.9855
218
root 0.0540964 16.8976 -3.38501 535.07 40.031 -176.359
lowerback 30.0758 -7.51949 5.22532
upperback 17.901 -4.0154 5.23415
thorax 3.81314 -0.219508 3.81174
lowerneck -16.3051 -11.8911 -19.7755
upperneck -9.04386 -11.8155 32.2708
head 3.96441 -4.40378 12.9299
rclavicle 9.54166e-014 3.18055e-015
rhumerus -24.1101 7.36944 -80.9381
rradius 49.8672
rwrist 8.59955
rhand -18.6384 5.54011
rfingers 7.12502
rthumb 7.65414 -24.3014
lclavicle 9.54166e-014 3.18055e-015
lhumerus -6.69344 -31.6729 94.1869
lradius 56.376
lwrist 3.0627
lhand -16.3744 -10.238
lfingers 7.12502
lthumb 9.83898 19.5121
rfemur -26.7492 -1.86867 22.3413
rtibia 42.1203
rfoot -11.5579 -0.399802
rtoes -27.006
lfemur 9.14464 -1.77098 -10.9915
ltibia 55.0053
lfoot 0.672629 -4.76414
ltoes -35.5536
219
root 0.14896 16.9173 -3.44006 535.1 39.8883 -176.393
lowerback 30.0191 -7.55577 5.3149
upperback 17.8635 -4.04552 5.27339
thorax 3.79288 -0.23096 3.8113
lowerneck -16.2196 -11.8539 -19.7305
upperneck -9.0519 -11.7825 32.1592
head 3.9214 -4.40056 12.8842
rclavicle 3.57812e-014 7.15625e-014
rhumerus -24.0429 7.47329 -81.0048
rradius 50.3992
rwrist 8.85714
rhand -18.8494 5.61958
rfingers 7.12502
rthumb 7.45052 -24.2292
lclavicle 3.57812e-014 7.15625e-014
lhumerus -6.80593 -31.2004 94.0321
lradius 55.5953
lwrist 3.0219
lhand -16.5984 -10.2266
lfingers 7.12502
lthumb 9.6228 19.5336
rfemur -26.4323 -2.1762 22.4295
rtibia 42.1338
rfoot -11.5995 -0.2326
rtoes -26.9943
lfemur 8.28009 -1.81716 -10.8484
ltibia 56.4042
lfoot 2.06177 -4.68809
ltoes -35.3117
220
root 0.243276 16.9361 -3.49453 535.13 39.7554 -176.369
lowerback 29.9948 -7.59246 5.43643
upperback 17.8378 -4.05757 5.32159
thorax 3.77156 -0.228132 3.80101
lowerneck -16.1496 -11.8271 -19.6853
upperneck -9.05949 -11.762 32.0396
head 3.88331 -4.40205 12.8327
rclavicle -7.15625e-014 -7.95139e-015
rhumerus -23.9106 7.57727 -81.0571
rradius 50.8779
rwrist 9.04982
rhand -19.0075 5.69942
rfingers 7.12502
rthumb 7.29787 -24.1547
lclavicle -7.15625e-014 -7.95139e-015
lhumerus -6.88886 -30.7003 93.9
lradius 54.7314
lwrist 3.02737
lhand -16.7974 -10.3412
lfingers 7.12502
lthumb 9.43087 19.4278
rfemur -26.0774 -2.47007 22.5662
rtibia 42.1493
rfoot -11.6685 -0.106953
rtoes -27.1056
lfemur 7.42681 -1.83574 -10.6459
ltibia 57.8141
lfoot 3.19363 -4.69746
ltoes -34.368
221
root 0.337226 16.9542 -3.54919 535.099 39.6359 -176.407
lowerback 29.9876 -7.61012 5.50482
upperback 17.8123 -4.05873 5.35425
thorax 3.74494 -0.223955 3.79982
lowerneck -16.106 -11.8102 -19.6454
upperneck -9.05278 -11.7534 31.9285
head 3.85822 -4.40603 12.7828
rclavicle 7.79236e-014 -8.66701e-014
rhumerus -23.7811 7.72579 -81.1118
rradius 51.3288
rwrist 9.24357
rhand -19.2325 5.7512
rfingers 7.12502
rthumb 7.08069 -24.1104
lclavicle 7.79236e-014 -8.66701e-014
lhumerus -6.9749 -30.2509 93.7472
lradius 53.8467
lwrist 3.1062
lhand -17.0452 -10.3847
lfingers 7.12502
lthumb 9.19171 19.3949
rfemur -25.7024 -2.72705 22.645
rtibia 42.1721
rfoot -11.7557 0.012675
rtoes -27.1859
lfemur 6.59447 -1.85182 -10.5196
ltibia 59.2126
lfoot 4.00098 -4.74238
ltoes -33.3527
